<!--?xml version="1.0" encoding="UTF-8" standalone="no"?-->
<svg version="1.1" width="100%" height="100%" viewBox="0 0 340.000000 250.000000" preserveAspectRatio="xMidYMid meet" color-interpolation-filters="sRGB" style="margin: auto;" id="svg1009" xmlns="http://www.w3.org/2000/svg" xmlns:svg="http://www.w3.org/2000/svg">
  <link xmlns="http://www.w3.org/1999/xhtml" rel="stylesheet" href="./ddbo.css" type="text/css"/>
  <defs id="defs1013"></defs>
  <g fill="#333" class="iconlettersvg-g iconlettersvg" transform="translate(78.26288604736328,95.68415260314941)" id="g999">
    <g id="g997">
      <g class="tp-name" transform="matrix(1,0,0,1,0,0)" opacity="1" id="g995">
        <g transform="scale(1)" id="g993">
          <g transform="translate(0, 0)" id="g945">
            <g class="name-imagesvg" id="g943">
              <g id="g941">
                <rect fill="#333" fill-opacity="0" stroke-width="2" x="0" y="0" width="44.4754980643943" height="44.4754980643943" class="image-rect svg-elem-1" id="rect933"></rect>
                <svg x="0" y="0" width="44.4754980643943" height="44.4754980643943" class="image-svg-svg primary" style="overflow: visible;" version="1.1" id="svg939">
                  <svg viewBox="0 0 278.16 278.16" version="1.1" id="svg937">
                    <path d="M172.23 278.16H35.31A35.31 35.31 0 0 1 0 242.85V35.31A35.31 35.31 0 0 1 35.31 0h136.92a106 106 0 0 1 105.93 105.93v66.3a106 106 0 0 1-105.93 105.93zM70.62 207.54h101.61a35.35 35.35 0 0 0 35.31-35.31v-66.3a35.35 35.35 0 0 0-35.31-35.31H70.62z" fill="#c8e107" opacity=".8" id="path935" class="svg-elem-2"></path>
                  </svg>
                </svg>
                <!---->
              </g>
            </g>
          </g>
          <g transform="translate(44.4754980643943, 0)" id="g959">
            <g class="name-imagesvg" id="g957">
              <g id="g955">
                <rect fill="#333" fill-opacity="0" stroke-width="2" x="0" y="0" width="44.4754980643943" height="44.4754980643943" class="image-rect svg-elem-3" id="rect947"></rect>
                <svg x="0" y="0" width="44.4754980643943" height="44.4754980643943" class="image-svg-svg primary" style="overflow: visible;" version="1.1" id="svg953">
                  <svg viewBox="0 0 278.16 278.16" version="1.1" id="svg951">
                    <path d="M172.23 278.16H35.31A35.31 35.31 0 0 1 0 242.85V35.31A35.31 35.31 0 0 1 35.31 0h136.92a106 106 0 0 1 105.93 105.93v66.3a106 106 0 0 1-105.93 105.93zM70.62 207.54h101.61a35.35 35.35 0 0 0 35.31-35.31v-66.3a35.35 35.35 0 0 0-35.31-35.31H70.62z" fill="#c8e107" opacity=".8" id="path949" class="svg-elem-4"></path>
                  </svg>
                </svg>
                <!---->
              </g>
            </g>
          </g>
          <g transform="translate(88.9509961287886, 0)" id="g975">
            <g class="name-imagesvg" id="g973">
              <g id="g971">
                <rect fill="#333" fill-opacity="0" stroke-width="2" x="0" y="0" width="45.295748555178385" height="44.4754980643943" class="image-rect svg-elem-5" id="rect961"></rect>
                <svg x="0" y="0" width="45.295748555178385" height="44.4754980643943" class="image-svg-svg primary" style="overflow: visible;" version="1.1" id="svg969">
                  <svg viewBox="0 0 283.29 278.16" version="1.1" id="svg967">
                    <path d="M210.22 174.39H41.09a35.31 35.31 0 0 1 0-70.62h169.13a35.31 35.31 0 1 1 0 70.62z" fill="#ff973c" opacity=".8" id="path963" class="svg-elem-6"></path>
                    <path d="M194 278.16H35.31A35.31 35.31 0 0 1 0 242.85V35.31A35.31 35.31 0 0 1 35.31 0h136.92c1.21 0 2.41 0 3.61.06a95.61 95.61 0 0 1 83.55 55.26 97.31 97.31 0 0 1 3.09 76c19.15 22.64 25.81 53.32 16.93 83.26-11.07 37.27-43.19 62.2-81.84 63.5-1.19.06-2.41.08-3.57.08zM70.62 207.54h124.6c11.14-.38 15.14-8.32 16.53-13 1.2-4 2.89-14.17-7.24-21.26L197 168a35.31 35.31 0 0 1-7.68-50.53l3.22-4.16c9.29-12 4.62-24.44 3-28-2-4.27-8.17-14.25-22-14.72H70.62z" fill="#ea79a8" opacity=".8" id="path965" class="svg-elem-7"></path>
                  </svg>
                </svg>
                <!---->
              </g>
            </g>
          </g>
          <g transform="translate(134.246744683967, 0)" id="g991">
            <g class="name-imagesvg" id="g989">
              <g id="g987">
                <rect fill="#333" fill-opacity="0" stroke-width="2" x="0" y="0" width="49.22748195626551" height="44.4754980643943" class="image-rect svg-elem-8" id="rect977"></rect>
                <svg x="0" y="0" width="49.22748195626551" height="44.4754980643943" class="image-svg-svg primary" style="overflow: visible;" version="1.1" id="svg985">
                  <svg viewBox="0 0 307.88 278.16" version="1.1" id="svg983">
                    <path d="M196 278.16h-84A112.06 112.06 0 0 1 0 166.23a35.31 35.31 0 0 1 70.62 0 41.36 41.36 0 0 0 41.32 41.31h84a41.35 41.35 0 0 0 41.31-41.31 35.31 35.31 0 0 1 70.62 0A112.05 112.05 0 0 1 196 278.16z" fill="#32a8e7" opacity=".8" id="path979" class="svg-elem-9"></path>
                    <path d="M272.57 201.54a35.31 35.31 0 0 1-35.31-35.31v-54.29A41.36 41.36 0 0 0 196 70.62h-84a41.37 41.37 0 0 0-41.32 41.32v54.29a35.31 35.31 0 0 1-70.62 0v-54.29A112.06 112.06 0 0 1 111.94 0h84a112.06 112.06 0 0 1 111.94 111.94v54.29a35.31 35.31 0 0 1-35.31 35.31z" fill="#22b678" opacity=".8" id="path981" class="svg-elem-10"></path>
                  </svg>
                </svg>
                <!---->
              </g>
            </g>
          </g>
        </g>
      </g>
    </g>
  </g>
  <g class="tp-slogan" fill="#333333" transform="translate(153.21388,148.38365)" opacity="1" id="g1007">
    <!---->
    <!---->
    <g id="g1005">
      <g id="g1003">
        <path d="M 2.08,-4.14 V -7.07 H 3.4 c 0.61,0 1.08,0.11 1.41,0.31 0.33,0.21 0.49,0.58 0.49,1.1 0,0.51 -0.16,0.89 -0.49,1.14 -0.33,0.25 -0.8,0.38 -1.41,0.38 z M 5.4,0 H 6.53 L 4.54,-3.43 C 5.07,-3.57 5.5,-3.82 5.82,-4.19 6.14,-4.56 6.3,-5.05 6.3,-5.66 6.3,-6.07 6.23,-6.42 6.1,-6.7 5.96,-6.98 5.77,-7.2 5.53,-7.38 5.28,-7.56 4.99,-7.68 4.65,-7.76 4.31,-7.83 3.94,-7.87 3.54,-7.87 H 1.08 V 0 h 1 V -3.32 H 3.5 Z m 2.62,-7.87 v 4.62 c 0,0.63 0.07,1.16 0.21,1.59 0.15,0.44 0.34,0.79 0.6,1.05 0.25,0.27 0.55,0.46 0.9,0.58 0.34,0.12 0.72,0.17 1.12,0.17 0.4,0 0.77,-0.05 1.11,-0.17 0.35,-0.12 0.65,-0.31 0.9,-0.58 0.25,-0.26 0.45,-0.61 0.59,-1.05 0.15,-0.43 0.22,-0.96 0.22,-1.59 v -4.62 h -0.96 v 4.64 c 0,0.47 -0.05,0.87 -0.15,1.19 -0.09,0.32 -0.22,0.58 -0.39,0.77 -0.17,0.19 -0.37,0.33 -0.59,0.41 -0.22,0.09 -0.47,0.13 -0.73,0.13 -0.26,0 -0.5,-0.04 -0.72,-0.13 C 9.9,-0.94 9.71,-1.08 9.55,-1.27 9.38,-1.46 9.25,-1.72 9.16,-2.04 9.06,-2.36 9.01,-2.76 9.01,-3.23 v -4.64 z m 7.68,6.15 -0.6,0.7 c 0.34,0.36 0.75,0.64 1.22,0.85 0.47,0.21 0.98,0.31 1.54,0.31 0.41,0 0.78,-0.05 1.11,-0.17 0.33,-0.12 0.61,-0.28 0.84,-0.48 0.23,-0.2 0.41,-0.44 0.54,-0.71 0.12,-0.28 0.18,-0.57 0.18,-0.88 0,-0.29 -0.04,-0.54 -0.12,-0.76 -0.09,-0.22 -0.2,-0.41 -0.35,-0.58 C 19.92,-3.6 19.75,-3.75 19.55,-3.87 19.35,-3.99 19.14,-4.1 18.91,-4.2 L 17.8,-4.68 c -0.16,-0.06 -0.32,-0.13 -0.47,-0.21 -0.15,-0.08 -0.29,-0.16 -0.42,-0.26 -0.13,-0.1 -0.23,-0.22 -0.31,-0.35 -0.07,-0.13 -0.11,-0.3 -0.11,-0.49 0,-0.36 0.13,-0.64 0.4,-0.84 0.27,-0.21 0.62,-0.31 1.06,-0.31 0.37,0 0.7,0.07 0.99,0.2 0.29,0.13 0.56,0.31 0.8,0.54 l 0.54,-0.64 C 20,-7.33 19.66,-7.57 19.26,-7.75 c -0.4,-0.18 -0.84,-0.27 -1.31,-0.27 -0.36,0 -0.69,0.06 -0.99,0.16 -0.3,0.1 -0.56,0.25 -0.78,0.44 -0.22,0.19 -0.39,0.41 -0.51,0.66 -0.13,0.26 -0.19,0.54 -0.19,0.83 0,0.29 0.05,0.54 0.14,0.76 0.1,0.22 0.22,0.41 0.38,0.57 0.15,0.16 0.32,0.3 0.51,0.41 0.19,0.11 0.38,0.21 0.57,0.29 l 1.12,0.49 c 0.19,0.09 0.36,0.17 0.52,0.25 0.16,0.08 0.3,0.17 0.41,0.27 0.12,0.1 0.21,0.22 0.28,0.36 0.07,0.14 0.1,0.31 0.1,0.51 0,0.39 -0.14,0.7 -0.43,0.93 -0.29,0.24 -0.69,0.36 -1.21,0.36 -0.41,0 -0.8,-0.09 -1.18,-0.27 -0.38,-0.18 -0.71,-0.42 -0.99,-0.72 z m 6.38,-6.15 V 0 h 1 v -7.87 z m 6.5,4.67 h -2.36 l 0.37,-1.2 c 0.15,-0.44 0.28,-0.88 0.41,-1.32 0.13,-0.43 0.25,-0.88 0.37,-1.34 h 0.05 c 0.13,0.46 0.26,0.91 0.38,1.34 0.13,0.44 0.27,0.88 0.41,1.32 z m 0.26,0.8 0.74,2.4 h 1.07 L 27.98,-7.87 H 26.86 L 24.19,0 h 1.02 l 0.76,-2.4 z" transform="translate(-1.08,8.016)" id="path1001" class="svg-elem-11"></path>
      </g>
    </g>
  </g>
</svg>
