<?xml version="1.0" encoding="UTF-8" standalone="no"?>
<!-- Created with Keyshape -->
<svg xmlns="http://www.w3.org/2000/svg" id="svg1009" width="340" height="250" viewBox="0 0 340 250" preserveAspectRatio="xMidYMid meet" color-interpolation-filters="sRGB">
    <style>
@keyframes path935_fo { 0% { fill-opacity: 0; } 22.7273% { fill-opacity: 1; } 100% { fill-opacity: 1; } }
@keyframes path935_s { 0% { stroke: none; } 11.3636% { stroke: #030303; } 100% { stroke: #030303; } }
@keyframes path935_da { 0% { stroke-dasharray: 0; } 11.3636% { stroke-dasharray: 1508.26px 1508.26px; } 100% { stroke-dasharray: 1508.26px 1508.26px; } }
@keyframes path935_do { 0% { stroke-dashoffset: 0px; } 11.3636% { stroke-dashoffset: 1508.26px; } 34.0909% { stroke-dashoffset: 0px; } 100% { stroke-dashoffset: 0px; } }
@keyframes path949_fo { 0% { fill-opacity: 0; } 11.3636% { fill-opacity: 0; } 34.0909% { fill-opacity: 1; } 100% { fill-opacity: 1; } }
@keyframes path949_s { 0% { stroke: none; } 22.7273% { stroke: #000000; } 100% { stroke: #000000; } }
@keyframes path949_f { 0% { fill: #c8e107; } 22.7273% { fill: #85e107; } 100% { fill: #85e107; } }
@keyframes path949_sw { 0% { stroke-width: 1px; } 22.7273% { stroke-width: 2px; } 100% { stroke-width: 2px; } }
@keyframes path949_da { 0% { stroke-dasharray: 0; } 11.3636% { stroke-dasharray: 1508.26px 1508.26px; } 100% { stroke-dasharray: 1508.26px 1508.26px; } }
@keyframes path949_do { 0% { stroke-dashoffset: 0px; } 11.3636% { stroke-dashoffset: 1508.26px; } 45.4545% { stroke-dashoffset: 0px; } 100% { stroke-dashoffset: 0px; } }
@keyframes path963_fo { 0% { fill-opacity: 0; } 22.7273% { fill-opacity: 0; } 45.4545% { fill-opacity: 1; } 100% { fill-opacity: 1; } }
@keyframes path963_s { 0% { stroke: none; } 34.0909% { stroke: #000000; } 100% { stroke: #000000; } }
@keyframes path963_sw { 0% { stroke-width: 1px; } 34.0909% { stroke-width: 2px; } 100% { stroke-width: 2px; } }
@keyframes path963_da { 0% { stroke-dasharray: 0; } 34.0909% { stroke-dasharray: 559.65px 559.65px; } 100% { stroke-dasharray: 559.65px 559.65px; } }
@keyframes path963_do { 0% { stroke-dashoffset: 0px; } 34.0909% { stroke-dashoffset: 559.65px; } 56.8182% { stroke-dashoffset: 0px; } 100% { stroke-dashoffset: 0px; } }
@keyframes path965_fo { 0% { fill-opacity: 0; } 22.7273% { fill-opacity: 0; } 45.4545% { fill-opacity: 1; } 100% { fill-opacity: 1; } }
@keyframes path965_s { 0% { stroke: none; } 34.0909% { stroke: #030303; } 100% { stroke: #030303; } }
@keyframes path965_sw { 0% { stroke-width: 1px; } 34.0909% { stroke-width: 2px; } 100% { stroke-width: 2px; } }
@keyframes path965_da { 0% { stroke-dasharray: 0; } 34.0909% { stroke-dasharray: 1543.83px 1543.83px; } 100% { stroke-dasharray: 1543.83px 1543.83px; } }
@keyframes path965_do { 0% { stroke-dashoffset: 0px; } 34.0909% { stroke-dashoffset: 1543.83px; } 56.8182% { stroke-dashoffset: 0px; } 100% { stroke-dashoffset: 0px; } }
@keyframes path979_fo { 0% { fill-opacity: 0; } 45.4545% { fill-opacity: 0; } 68.1818% { fill-opacity: 1; } 100% { fill-opacity: 1; } }
@keyframes path979_s { 0% { stroke: none; } 56.8182% { stroke: #010101; } 100% { stroke: #010101; } }
@keyframes path979_sw { 0% { stroke-width: 1px; } 56.8182% { stroke-width: 2px; } 100% { stroke-width: 2px; } }
@keyframes path979_da { 0% { stroke-dasharray: 0; } 56.8182% { stroke-dasharray: 870.55px 870.55px; } 100% { stroke-dasharray: 870.55px 870.55px; } }
@keyframes path979_do { 0% { stroke-dashoffset: 0px; } 56.8182% { stroke-dashoffset: 870.55px; } 79.5455% { stroke-dashoffset: 0px; } 100% { stroke-dashoffset: 0px; } }
@keyframes path981_fo { 0% { fill-opacity: 0; } 45.4545% { fill-opacity: 0; } 68.1818% { fill-opacity: 1; } 100% { fill-opacity: 1; } }
@keyframes path981_s { 0% { stroke: none; } 56.8182% { stroke: #000000; } 100% { stroke: #000000; } }
@keyframes path981_sw { 0% { stroke-width: 1px; } 56.8182% { stroke-width: 2px; } 100% { stroke-width: 2px; } }
@keyframes path981_da { 0% { stroke-dasharray: 0; } 56.8182% { stroke-dasharray: 1087.62px 1087.62px; } 100% { stroke-dasharray: 1087.62px 1087.62px; } }
@keyframes path981_do { 0% { stroke-dashoffset: 0px; } 56.8182% { stroke-dashoffset: 1087.62px; } 79.5455% { stroke-dashoffset: 0px; } 100% { stroke-dashoffset: 0px; } }
@keyframes path1001_fo { 0% { fill-opacity: 0; } 100% { fill-opacity: 0; } }
@keyframes path1001_s { 0% { stroke: none; } 77.7727% { stroke: #000000; } 100% { stroke: #000000; } }
@keyframes path1001_sw { 0% { stroke-width: 0.5px; } 100% { stroke-width: 0.5px; } }
@keyframes path1001_da { 0% { stroke-dasharray: 0; } 77.7727% { stroke-dasharray: 172.06px 172.06px; } 100% { stroke-dasharray: 172.06px 172.06px; } }
@keyframes path1001_do { 0% { stroke-dashoffset: 0px; } 77.7727% { stroke-dashoffset: 172.06px; } 88.8864% { stroke-dashoffset: 70px; } 100% { stroke-dashoffset: 0px; } }
    </style>
    <defs id="defs1013"/>
    <g id="g999" fill="#333" class="iconlettersvg-g iconlettersvg" transform="translate(170,117.922) translate(-91.7371,-22.2377)">
        <g id="g997" transform="translate(91.7371,22.2377) translate(-91.7371,-22.2377)">
            <g id="g995" class="tp-name" opacity="1" transform="translate(91.7371,22.2377) translate(-91.7371,-22.2377)">
                <g id="g993" transform="translate(91.7371,22.2377) translate(-91.7371,-22.2377)">
                    <g id="g945" transform="translate(22.2377,22.2377) translate(-22.2377,-22.2377)">
                        <g id="g943" class="name-imagesvg" transform="translate(22.2377,22.2377) translate(-22.2377,-22.2377)">
                            <g id="g941" transform="translate(22.2377,22.2377) translate(-22.2377,-22.2377)">
                                <rect id="rect933" fill="#333" fill-opacity="0" stroke-width="2" width="44.4755" height="44.4755" class="image-rect svg-elem-1" transform="translate(22.2377,22.2377) translate(-22.2377,-22.2377)"/>
                                <svg id="svg939" width="44.4755" height="44.4755" class="image-svg-svg primary" overflow="visible" transform="translate(22.2377,22.2377) translate(-22.2377,-22.2377)">
                                    <svg id="svg937" viewBox="0 0 278.16 278.16" transform="translate(170,125) translate(-170,-125)">
                                        <path id="path935" d="M0,242.85L0,35.31C0,15.8088,15.8088,0,35.31,0L172.23,0C230.718,0.0386111,278.121,47.4425,278.16,105.93L278.16,172.23C278.121,230.718,230.718,278.121,172.23,278.16L172.23,278.16L35.31,278.16C25.9452,278.16,16.964,274.44,10.3421,267.818C3.72015,261.196,0,252.215,0,242.85ZM70.62,207.54L172.23,207.54C191.722,207.518,207.518,191.722,207.54,172.23L207.54,105.93C207.518,86.438,191.722,70.642,172.23,70.62L70.62,70.62Z" fill="#c8e107" opacity="0.8" class="svg-elem-2" stroke-width="2" stroke="none" fill-opacity="0" stroke-dasharray="none" stroke-dashoffset="0" transform="translate(139.08,139.08) translate(-139.08,-139.08)" style="animation: 4.4s linear both path935_fo, 4.4s linear both path935_s, 4.4s linear both path935_da, 4.4s linear both path935_do;"/>
                                    </svg>
                                </svg>
                            </g>
                        </g>
                    </g>
                    <g id="g959" transform="translate(66.7132,22.2377) translate(-22.2377,-22.2377)">
                        <g id="g957" class="name-imagesvg" transform="translate(22.2377,22.2377) translate(-22.2377,-22.2377)">
                            <g id="g955" transform="translate(22.2377,22.2377) translate(-22.2377,-22.2377)">
                                <rect id="rect947" fill="#333" fill-opacity="0" stroke-width="2" width="44.4755" height="44.4755" class="image-rect svg-elem-3" transform="translate(22.2377,22.2377) translate(-22.2377,-22.2377)"/>
                                <svg id="svg953" width="44.4755" height="44.4755" class="image-svg-svg primary" overflow="visible" transform="translate(22.2377,22.2377) translate(-22.2377,-22.2377)">
                                    <svg id="svg951" viewBox="0 0 278.16 278.16" transform="translate(170,125) translate(-170,-125)">
                                        <path id="path949" d="M172.23,278.16L172.23,278.16L35.31,278.16C25.9452,278.16,16.964,274.44,10.3421,267.818C3.72015,261.196,0,252.215,0,242.85L0,35.31C0,15.8088,15.8088,0,35.31,0L172.23,0C230.718,0.0386111,278.121,47.4425,278.16,105.93L278.16,172.23C278.121,230.718,230.718,278.121,172.23,278.16ZM70.62,207.54L172.23,207.54C191.722,207.518,207.518,191.722,207.54,172.23L207.54,105.93C207.518,86.438,191.722,70.642,172.23,70.62L70.62,70.62Z" fill="#c8e107" opacity="0.8" class="svg-elem-4" fill-opacity="0" stroke-dasharray="none" stroke-dashoffset="0" stroke="none" stroke-width="1" transform="translate(139.08,139.08) translate(-139.08,-139.08)" style="animation: 4.4s linear both path949_fo, 4.4s linear both path949_s, 4.4s linear both path949_f, 4.4s linear both path949_sw, 4.4s linear both path949_da, 4.4s linear both path949_do;"/>
                                    </svg>
                                </svg>
                            </g>
                        </g>
                    </g>
                    <g id="g975" transform="translate(111.599,22.2377) translate(-22.6479,-22.2377)">
                        <g id="g973" class="name-imagesvg" transform="translate(22.6479,22.2377) translate(-22.6479,-22.2377)">
                            <g id="g971" transform="translate(22.6479,22.2377) translate(-22.6479,-22.2377)">
                                <rect id="rect961" fill="#333" fill-opacity="0" stroke-width="2" width="45.2957" height="44.4755" class="image-rect svg-elem-5" transform="translate(22.6479,22.2377) translate(-22.6479,-22.2377)"/>
                                <svg id="svg969" width="45.2957" height="44.4755" class="image-svg-svg primary" overflow="visible" transform="translate(22.6479,22.2377) translate(-22.6479,-22.2377)">
                                    <svg id="svg967" viewBox="0 0 283.29 278.16" transform="translate(170,125) translate(-170,-125)">
                                        <path id="path963" d="M210.22,174.39L210.22,174.39L41.09,174.39C21.5888,174.39,5.78,158.581,5.78,139.08C5.78,119.579,21.5888,103.77,41.09,103.77L210.22,103.77C222.835,103.77,234.492,110.5,240.799,121.425C247.107,132.35,247.107,145.81,240.799,156.735C234.492,167.66,222.835,174.39,210.22,174.39Z" fill="#ff973c" opacity="0.8" class="svg-elem-6" fill-opacity="0" stroke-width="1" stroke="none" stroke-dasharray="none" stroke-dashoffset="0" transform="translate(125.655,139.08) translate(-125.655,-139.08)" style="animation: 4.4s linear both path963_fo, 4.4s linear both path963_s, 4.4s linear both path963_sw, 4.4s linear both path963_da, 4.4s linear both path963_do;"/>
                                        <path id="path965" d="M35.31,0L172.23,0C173.44,0,174.64,0,175.84,0.06C211.883,1.24911,244.19,22.6172,259.39,55.32C270.688,79.1849,271.804,106.617,262.48,131.32C281.63,153.96,288.29,184.64,279.41,214.58C268.34,251.85,236.22,276.78,197.57,278.08C196.38,278.14,195.16,278.16,194,278.16L35.31,278.16C25.9452,278.16,16.964,274.44,10.3421,267.818C3.72015,261.196,0,252.215,0,242.85L0,35.31C0,15.8088,15.8088,0,35.31,0ZM70.62,207.54L195.22,207.54C206.36,207.16,210.36,199.22,211.75,194.54C212.95,190.54,214.64,180.37,204.51,173.28L197,168C189.089,162.462,183.792,153.926,182.341,144.379C180.89,134.833,183.412,125.108,189.32,117.47L192.54,113.31C201.83,101.31,197.16,88.87,195.54,85.31C193.54,81.04,187.37,71.06,173.54,70.59L70.62,70.59Z" fill="#ea79a8" opacity="0.8" class="svg-elem-7" fill-opacity="0" stroke-width="1" stroke="none" stroke-dasharray="none" stroke-dashoffset="0" transform="translate(141.645,139.08) translate(-141.645,-139.08)" style="animation: 4.4s linear both path965_fo, 4.4s linear both path965_s, 4.4s linear both path965_sw, 4.4s linear both path965_da, 4.4s linear both path965_do;"/>
                                    </svg>
                                </svg>
                            </g>
                        </g>
                    </g>
                    <g id="g991" transform="translate(158.86,22.2377) translate(-24.6137,-22.2377)">
                        <g id="g989" class="name-imagesvg" transform="translate(24.6137,22.2377) translate(-24.6137,-22.2377)">
                            <g id="g987" transform="translate(24.6137,22.2377) translate(-24.6137,-22.2377)">
                                <rect id="rect977" fill="#333" fill-opacity="0" stroke-width="2" width="49.2275" height="44.4755" class="image-rect svg-elem-8" transform="translate(24.6137,22.2377) translate(-24.6137,-22.2377)"/>
                                <svg id="svg985" width="49.2275" height="44.4755" class="image-svg-svg primary" overflow="visible" transform="translate(24.6137,22.2377) translate(-24.6137,-22.2377)">
                                    <svg id="svg983" viewBox="0 0 307.88 278.16" transform="translate(170,125) translate(-170,-125)">
                                        <path id="path979" d="M272.56,130.92C292.061,130.92,307.87,146.729,307.87,166.23C307.804,227.996,257.766,278.061,196,278.16L196,278.16L112,278.16C50.1851,278.127,0.0717022,228.045,0,166.23C0,146.729,15.8088,130.92,35.31,130.92C54.8112,130.92,70.62,146.729,70.62,166.23C70.6476,189.037,89.1326,207.518,111.94,207.54L195.94,207.54C218.746,207.518,237.228,189.036,237.25,166.23C237.25,146.729,253.059,130.92,272.56,130.92Z" fill="#32a8e7" opacity="0.8" class="svg-elem-9" fill-opacity="0" stroke-width="1" stroke="none" stroke-dasharray="none" stroke-dashoffset="0" transform="translate(153.935,204.54) translate(-153.935,-204.54)" style="animation: 4.4s linear both path979_fo, 4.4s linear both path979_s, 4.4s linear both path979_sw, 4.4s linear both path979_da, 4.4s linear both path979_do;"/>
                                        <path id="path981" d="M35.37,201.54C15.8688,201.54,0.06,185.731,0.06,166.23L0.06,111.94C0.126069,50.168,50.1681,0.0991879,111.94,0L195.94,0C257.735,0.0661385,307.814,50.1447,307.88,111.94L307.88,166.23C307.88,175.595,304.16,184.576,297.538,191.198C290.916,197.82,281.935,201.54,272.57,201.54L272.57,201.54C263.205,201.54,254.224,197.82,247.602,191.198C240.98,184.576,237.26,175.595,237.26,166.23L237.26,111.94C237.238,89.1521,218.788,70.6751,196,70.62L112,70.62C89.191,70.6476,70.7076,89.131,70.68,111.94L70.68,166.23C70.68,185.731,54.8712,201.54,35.37,201.54Z" fill="#22b678" opacity="0.8" class="svg-elem-10" fill-opacity="0" stroke-width="1" stroke="none" stroke-dasharray="none" stroke-dashoffset="0" transform="translate(153.97,100.77) translate(-153.97,-100.77)" style="animation: 4.4s linear both path981_fo, 4.4s linear both path981_s, 4.4s linear both path981_sw, 4.4s linear both path981_da, 4.4s linear both path981_do;"/>
                                    </svg>
                                </svg>
                            </g>
                        </g>
                    </g>
                </g>
            </g>
        </g>
    </g>
    <g id="g1007" class="tp-slogan" fill="#333333" opacity="1" transform="translate(167.999,152.46) translate(-14.785,-4.076)">
        <g id="g1005" transform="translate(14.785,4.076) translate(-14.785,-4.076)">
            <g id="g1003" transform="translate(14.785,4.076) translate(-14.785,-4.076)">
                <path id="path1001" d="M2.08,-4.14L2.08,-7.07L3.4,-7.07C4.01,-7.07,4.48,-6.96,4.81,-6.76C5.14,-6.55,5.3,-6.18,5.3,-5.66C5.3,-5.15,5.14,-4.77,4.81,-4.52C4.48,-4.27,4.01,-4.14,3.4,-4.14ZM5.4,0L6.53,0L4.54,-3.43C5.07,-3.57,5.5,-3.82,5.82,-4.19C6.14,-4.56,6.3,-5.05,6.3,-5.66C6.3,-6.07,6.23,-6.42,6.1,-6.7C5.96,-6.98,5.77,-7.2,5.53,-7.38C5.28,-7.56,4.99,-7.68,4.65,-7.76C4.31,-7.83,3.94,-7.87,3.54,-7.87L1.08,-7.87L1.08,0L2.08,0L2.08,-3.32L3.5,-3.32ZM8.02,-7.87L8.02,-3.25C8.02,-2.62,8.09,-2.09,8.23,-1.66C8.38,-1.22,8.57,-0.87,8.83,-0.61C9.08,-0.34,9.38,-0.15,9.73,-0.03C10.07,0.09,10.45,0.14,10.85,0.14C11.25,0.14,11.62,0.09,11.96,-0.03C12.31,-0.15,12.61,-0.34,12.86,-0.61C13.11,-0.87,13.31,-1.22,13.45,-1.66C13.6,-2.09,13.67,-2.62,13.67,-3.25L13.67,-7.87L12.71,-7.87L12.71,-3.23C12.71,-2.76,12.66,-2.36,12.56,-2.04C12.47,-1.72,12.34,-1.46,12.17,-1.27C12,-1.08,11.8,-0.94,11.58,-0.86C11.36,-0.77,11.11,-0.73,10.85,-0.73C10.59,-0.73,10.35,-0.77,10.13,-0.86C9.9,-0.94,9.71,-1.08,9.55,-1.27C9.38,-1.46,9.25,-1.72,9.16,-2.04C9.06,-2.36,9.01,-2.76,9.01,-3.23L9.01,-7.87ZM15.7,-1.72L15.1,-1.02C15.44,-0.66,15.85,-0.38,16.32,-0.17C16.79,0.04,17.3,0.14,17.86,0.14C18.27,0.14,18.64,0.09,18.97,-0.03C19.3,-0.15,19.58,-0.31,19.81,-0.51C20.04,-0.71,20.22,-0.95,20.35,-1.22C20.47,-1.5,20.53,-1.79,20.53,-2.1C20.53,-2.39,20.49,-2.64,20.41,-2.86C20.32,-3.08,20.21,-3.27,20.06,-3.44C19.92,-3.6,19.75,-3.75,19.55,-3.87C19.35,-3.99,19.14,-4.1,18.91,-4.2L17.8,-4.68C17.64,-4.74,17.48,-4.81,17.33,-4.89C17.18,-4.97,17.04,-5.05,16.91,-5.15C16.78,-5.25,16.68,-5.37,16.6,-5.5C16.53,-5.63,16.49,-5.8,16.49,-5.99C16.49,-6.35,16.62,-6.63,16.89,-6.83C17.16,-7.04,17.51,-7.14,17.95,-7.14C18.32,-7.14,18.65,-7.07,18.94,-6.94C19.23,-6.81,19.5,-6.63,19.74,-6.4L20.28,-7.04C20,-7.33,19.66,-7.57,19.26,-7.75C18.86,-7.93,18.42,-8.02,17.95,-8.02C17.59,-8.02,17.26,-7.96,16.96,-7.86C16.66,-7.76,16.4,-7.61,16.18,-7.42C15.96,-7.23,15.79,-7.01,15.67,-6.76C15.54,-6.5,15.48,-6.22,15.48,-5.93C15.48,-5.64,15.53,-5.39,15.62,-5.17C15.72,-4.95,15.84,-4.76,16,-4.6C16.15,-4.44,16.32,-4.3,16.51,-4.19C16.7,-4.08,16.89,-3.98,17.08,-3.9L18.2,-3.41C18.39,-3.32,18.56,-3.24,18.72,-3.16C18.88,-3.08,19.02,-2.99,19.13,-2.89C19.25,-2.79,19.34,-2.67,19.41,-2.53C19.48,-2.39,19.51,-2.22,19.51,-2.02C19.51,-1.63,19.37,-1.32,19.08,-1.09C18.79,-0.85,18.39,-0.73,17.87,-0.73C17.46,-0.73,17.07,-0.82,16.69,-1C16.31,-1.18,15.98,-1.42,15.7,-1.72ZM22.08,-7.87L22.08,0L23.08,0L23.08,-7.87ZM28.58,-3.2L26.22,-3.2L26.59,-4.4C26.74,-4.84,26.87,-5.28,27,-5.72C27.13,-6.15,27.25,-6.6,27.37,-7.06L27.42,-7.06C27.55,-6.6,27.68,-6.15,27.8,-5.72C27.93,-5.28,28.07,-4.84,28.21,-4.4ZM28.84,-2.4L29.58,0L30.65,0L27.98,-7.87L26.86,-7.87L24.19,0L25.21,0L25.97,-2.4Z" class="svg-elem-11" stroke="none" fill-opacity="0" stroke-width="0.5" stroke-dasharray="none" stroke-dashoffset="0" transform="translate(14.785,4.076) translate(-15.865,3.94)" style="animation: 4.4s linear both path1001_fo, 4.4s linear both path1001_s, 4.4s linear both path1001_sw, 4.4s linear both path1001_da, 4.4s linear both path1001_do;"/>
            </g>
        </g>
    </g>
</svg>
