<svg version="1.1" xmlns="http://www.w3.org/2000/svg" xmlns:xlink="http://www.w3.org/1999/xlink"
     width="100%" height="100%" viewBox="0 0 340.000000 250.000000" preserveAspectRatio="xMidYMid meet"
     color-interpolation-filters="sRGB" style="margin: auto;" xmlns:xlink="http://www.w3.org/1999/xlink">
  <g fill="#333" class="iconlettersvg-g iconlettersvg"
     transform="translate(78.26288604736328,95.68415260314941)">
    <g>
      <g class="tp-name" transform="matrix(1,0,0,1,0,0)" opacity="1">
        <g transform="scale(1)">
          <g transform="translate(0, 0)">
            <g class="name-imagesvg">
              <g>
                <rect fill="#333" fill-opacity="0" stroke-width="2" x="0" y="0" width="44.4754980643943"
                      height="44.4754980643943" class="image-rect"></rect>
                <svg x="0" y="0" width="44.4754980643943" height="44.4754980643943"
                     class="image-svg-svg primary" style="overflow: visible;">
                  <svg xmlns="http://www.w3.org/2000/svg" viewBox="0 0 278.16 278.16">
                    <path
                      d="M172.23 278.16H35.31A35.31 35.31 0 0 1 0 242.85V35.31A35.31 35.31 0 0 1 35.31 0h136.92a106 106 0 0 1 105.93 105.93v66.3a106 106 0 0 1-105.93 105.93zM70.62 207.54h101.61a35.35 35.35 0 0 0 35.31-35.31v-66.3a35.35 35.35 0 0 0-35.31-35.31H70.62z"
                      fill="#c8e107" opacity=".8"></path>
                  </svg>
                </svg> <!---->
              </g>
            </g>
          </g>
          <g transform="translate(44.4754980643943, 0)">
            <g class="name-imagesvg">
              <g>
                <rect fill="#333" fill-opacity="0" stroke-width="2" x="0" y="0" width="44.4754980643943"
                      height="44.4754980643943" class="image-rect"></rect>
                <svg x="0" y="0" width="44.4754980643943" height="44.4754980643943"
                     class="image-svg-svg primary" style="overflow: visible;">
                  <svg xmlns="http://www.w3.org/2000/svg" viewBox="0 0 278.16 278.16">
                    <path
                      d="M172.23 278.16H35.31A35.31 35.31 0 0 1 0 242.85V35.31A35.31 35.31 0 0 1 35.31 0h136.92a106 106 0 0 1 105.93 105.93v66.3a106 106 0 0 1-105.93 105.93zM70.62 207.54h101.61a35.35 35.35 0 0 0 35.31-35.31v-66.3a35.35 35.35 0 0 0-35.31-35.31H70.62z"
                      fill="#c8e107" opacity=".8"></path>
                  </svg>
                </svg> <!---->
              </g>
            </g>
          </g>
          <g transform="translate(88.9509961287886, 0)">
            <g class="name-imagesvg">
              <g>
                <rect fill="#333" fill-opacity="0" stroke-width="2" x="0" y="0" width="45.295748555178385"
                      height="44.4754980643943" class="image-rect"></rect>
                <svg x="0" y="0" width="45.295748555178385" height="44.4754980643943"
                     class="image-svg-svg primary" style="overflow: visible;">
                  <svg xmlns="http://www.w3.org/2000/svg" viewBox="0 0 283.29 278.16">
                    <path d="M210.22 174.39H41.09a35.31 35.31 0 0 1 0-70.62h169.13a35.31 35.31 0 1 1 0 70.62z"
                          fill="#ff973c" opacity=".8"></path>
                    <path
                      d="M194 278.16H35.31A35.31 35.31 0 0 1 0 242.85V35.31A35.31 35.31 0 0 1 35.31 0h136.92c1.21 0 2.41 0 3.61.06a95.61 95.61 0 0 1 83.55 55.26 97.31 97.31 0 0 1 3.09 76c19.15 22.64 25.81 53.32 16.93 83.26-11.07 37.27-43.19 62.2-81.84 63.5-1.19.06-2.41.08-3.57.08zM70.62 207.54h124.6c11.14-.38 15.14-8.32 16.53-13 1.2-4 2.89-14.17-7.24-21.26L197 168a35.31 35.31 0 0 1-7.68-50.53l3.22-4.16c9.29-12 4.62-24.44 3-28-2-4.27-8.17-14.25-22-14.72H70.62z"
                      fill="#ea79a8" opacity=".8"></path>
                  </svg>
                </svg> <!---->
              </g>
            </g>
          </g>
          <g transform="translate(134.246744683967, 0)">
            <g class="name-imagesvg">
              <g>
                <rect fill="#333" fill-opacity="0" stroke-width="2" x="0" y="0" width="49.22748195626551"
                      height="44.4754980643943" class="image-rect"></rect>
                <svg x="0" y="0" width="49.22748195626551" height="44.4754980643943"
                     class="image-svg-svg primary" style="overflow: visible;">
                  <svg xmlns="http://www.w3.org/2000/svg" viewBox="0 0 307.88 278.16">
                    <path
                      d="M196 278.16h-84A112.06 112.06 0 0 1 0 166.23a35.31 35.31 0 0 1 70.62 0 41.36 41.36 0 0 0 41.32 41.31h84a41.35 41.35 0 0 0 41.31-41.31 35.31 35.31 0 0 1 70.62 0A112.05 112.05 0 0 1 196 278.16z"
                      fill="#32a8e7" opacity=".8"></path>
                    <path
                      d="M272.57 201.54a35.31 35.31 0 0 1-35.31-35.31v-54.29A41.36 41.36 0 0 0 196 70.62h-84a41.37 41.37 0 0 0-41.32 41.32v54.29a35.31 35.31 0 0 1-70.62 0v-54.29A112.06 112.06 0 0 1 111.94 0h84a112.06 112.06 0 0 1 111.94 111.94v54.29a35.31 35.31 0 0 1-35.31 35.31z"
                      fill="#22b678" opacity=".8"></path>
                  </svg>
                </svg> <!---->
              </g>
            </g>
          </g>
        </g>
      </g>
    </g>
  </g>

  <g class="tp-slogan" fill="#333"
     transform="matrix(1,0,0,1,76.95211410522461,50.4756965637207)" opacity="1"><!----> <!---->
    <g transform="scale(1, 1)">
      <g transform="scale(1)">
        <path
          d="M2.08-4.14L2.08-7.07L3.40-7.07C4.01-7.07 4.48-6.96 4.81-6.76C5.14-6.55 5.30-6.18 5.30-5.66C5.30-5.15 5.14-4.77 4.81-4.52C4.48-4.27 4.01-4.14 3.40-4.14ZM5.40 0L6.53 0L4.54-3.43C5.07-3.57 5.50-3.82 5.82-4.19C6.14-4.56 6.30-5.05 6.30-5.66C6.30-6.07 6.23-6.42 6.10-6.70C5.96-6.98 5.77-7.20 5.53-7.38C5.28-7.56 4.99-7.68 4.65-7.76C4.31-7.83 3.94-7.87 3.54-7.87L1.08-7.87L1.08 0L2.08 0L2.08-3.32L3.50-3.32ZM8.02-7.87L8.02-3.25C8.02-2.62 8.09-2.09 8.23-1.66C8.38-1.22 8.57-0.87 8.83-0.61C9.08-0.34 9.38-0.15 9.73-0.03C10.07 0.09 10.45 0.14 10.85 0.14C11.25 0.14 11.62 0.09 11.96-0.03C12.31-0.15 12.61-0.34 12.86-0.61C13.11-0.87 13.31-1.22 13.45-1.66C13.60-2.09 13.67-2.62 13.67-3.25L13.67-7.87L12.71-7.87L12.71-3.23C12.71-2.76 12.66-2.36 12.56-2.04C12.47-1.72 12.34-1.46 12.17-1.27C12-1.08 11.80-0.94 11.58-0.86C11.36-0.77 11.11-0.73 10.85-0.73C10.59-0.73 10.35-0.77 10.13-0.86C9.90-0.94 9.71-1.08 9.55-1.27C9.38-1.46 9.25-1.72 9.16-2.04C9.06-2.36 9.01-2.76 9.01-3.23L9.01-7.87ZM15.70-1.72L15.10-1.02C15.44-0.66 15.85-0.38 16.32-0.17C16.79 0.04 17.30 0.14 17.86 0.14C18.27 0.14 18.64 0.09 18.97-0.03C19.30-0.15 19.58-0.31 19.81-0.51C20.04-0.71 20.22-0.95 20.35-1.22C20.47-1.50 20.53-1.79 20.53-2.10C20.53-2.39 20.49-2.64 20.41-2.86C20.32-3.08 20.21-3.27 20.06-3.44C19.92-3.60 19.75-3.75 19.55-3.87C19.35-3.99 19.14-4.10 18.91-4.20L17.80-4.68C17.64-4.74 17.48-4.81 17.33-4.89C17.18-4.97 17.04-5.05 16.91-5.15C16.78-5.25 16.68-5.37 16.60-5.50C16.53-5.63 16.49-5.80 16.49-5.99C16.49-6.35 16.62-6.63 16.89-6.83C17.16-7.04 17.51-7.14 17.95-7.14C18.32-7.14 18.65-7.07 18.94-6.94C19.23-6.81 19.50-6.63 19.74-6.40L20.28-7.04C20.00-7.33 19.66-7.57 19.26-7.75C18.86-7.93 18.42-8.02 17.95-8.02C17.59-8.02 17.26-7.96 16.96-7.86C16.66-7.76 16.40-7.61 16.18-7.42C15.96-7.23 15.79-7.01 15.67-6.76C15.54-6.50 15.48-6.22 15.48-5.93C15.48-5.64 15.53-5.39 15.62-5.17C15.72-4.95 15.84-4.76 16.00-4.60C16.15-4.44 16.32-4.30 16.51-4.19C16.70-4.08 16.89-3.98 17.08-3.90L18.20-3.41C18.39-3.32 18.56-3.24 18.72-3.16C18.88-3.08 19.02-2.99 19.13-2.89C19.25-2.79 19.34-2.67 19.41-2.53C19.48-2.39 19.51-2.22 19.51-2.02C19.51-1.63 19.37-1.32 19.08-1.09C18.79-0.85 18.39-0.73 17.87-0.73C17.46-0.73 17.07-0.82 16.69-1.00C16.31-1.18 15.98-1.42 15.70-1.72ZM22.08-7.87L22.08 0L23.08 0L23.08-7.87ZM28.58-3.20L26.22-3.20L26.59-4.40C26.74-4.84 26.87-5.28 27-5.72C27.13-6.15 27.25-6.60 27.37-7.06L27.42-7.06C27.55-6.60 27.68-6.15 27.80-5.72C27.93-5.28 28.07-4.84 28.21-4.40ZM28.84-2.40L29.58 0L30.65 0L27.98-7.87L26.86-7.87L24.19 0L25.21 0L25.97-2.40Z"
          transform="translate(-1.08, 8.016)"></path>
      </g>
    </g>
  </g>
</svg>


